PathFileType	4	(X/Y/Z)	Patient4_TMGait_0pt8_01_left_29.trc.trc
DataRate	CameraRate	NumFrames	NumMarkers	Units	OrigDataRate	OrigDataStartFrame	OrigNumFrames
87.500000000000	87.500000000000	4	33	mm	87.500000000000	89	       141
Frame#	Time	Sacral			L.Shoulder			Chest			R.Shoulder			Neck			R.ASIS			L.ASIS			R.Thigh.Superior			R.Thigh.Lateral			R.Thigh.Inferior			R.Patella			L.Thigh.Superior			L.Thigh.Lateral			L.Thigh.Inferior			L.Patella			L.Shank.Superior			L.Shank.Lateral			L.Shank.Inferior			R.Shank.Superior			R.Shank.Lateral			R.Shank.Inferior			R.Heel			R.Midfoot.Superior			R.Midfoot.Lateral			R.Toe			L.Heel			L.Midfoot.Lateral			L.Midfoot.Superior			L.Toe			L.Elbow			L.Wrist			R.Elbow			R.Wrist			
		X1	Y1	Z1	X2	Y2	Z2	X3	Y3	Z3	X4	Y4	Z4	X5	Y5	Z5	X6	Y6	Z6	X7	Y7	Z7	X8	Y8	Z8	X9	Y9	Z9	X10	Y10	Z10	X11	Y11	Z11	X12	Y12	Z12	X13	Y13	Z13	X14	Y14	Z14	X15	Y15	Z15	X16	Y16	Z16	X17	Y17	Z17	X18	Y18	Z18	X19	Y19	Z19	X20	Y20	Z20	X21	Y21	Z21	X22	Y22	Z22	X23	Y23	Z23	X24	Y24	Z24	X25	Y25	Z25	X26	Y26	Z26	X27	Y27	Z27	X28	Y28	Z28	X29	Y29	Z29	X30	Y30	Z30	X31	Y31	Z31	X32	Y32	Z32	X33	Y33	Z33	

89	32.825714285714	864.767399247915	987.675836288716	510.249189155934	1044.773819084194	1421.195551527736	339.114561654589	1138.582546286616	1353.003554469683	506.146112545997	1040.887601750568	1421.532147921887	675.004900857877	1014.232979490657	1479.182418704750	493.497866752494	1092.450438955777	931.911745356875	637.116873110069	1083.770137746597	944.356615333659	361.818963003350	1166.278823885566	750.576998539006	605.079181052045	1107.448980243822	629.675545784205	665.230232191509	1193.539686621502	589.985362085803	585.420048940164	1211.813895984775	497.514830852439	593.627302339534	1106.243750542710	716.698523240574	381.891233052768	1006.794074634971	610.717630608835	315.065791928549	1087.406009273096	517.473587625895	369.684959428241	1070.511075056867	432.563620949403	365.214778275107	994.146047616766	382.171345151182	358.516093141552	848.312225877619	358.558362220035	312.849090104479	819.134288251633	231.786287105819	365.373614425393	1181.508900127884	406.149002100548	600.990680769728	1112.057628172495	303.234385415182	665.960911999508	1151.077458307835	207.374689386902	603.648946547508	1014.778198249562	44.344440101151	581.229983207205	1186.991402694832	98.020862544499	612.538973191542	1099.552436900722	37.905332397733	653.871767632295	1307.477137031086	43.900534875914	638.989720651316	623.211935575160	191.692351499664	404.924435879240	672.261748677233	133.942791450377	328.332694571361	776.578913035442	129.853857702271	348.496990625270	840.214870236554	29.048856008444	329.183405102456	1117.462644605914	1083.379432214316	211.063139242680	1367.649548123645	1066.520459259291	260.024486312484	909.184137817796	1098.642341989818	774.906155919567	882.592424261405	839.126842754349	783.295334930601	
90	32.837142857143	864.537851410504	989.442958687972	513.778120934734	1043.460339250258	1422.341888737015	340.471721215901	1138.871253738576	1354.411497331181	506.740015861775	1042.865935015959	1423.267411101600	676.359465047752	1014.239401824059	1480.586037739580	494.873109904046	1092.843644653552	933.328339319761	638.860753237073	1082.797953770391	945.563748007079	363.911802863477	1164.286969560299	749.727909557799	607.149232247344	1103.732720184969	629.850379593042	667.090876938802	1188.872566345996	589.084723602924	586.828442882935	1205.869687559250	496.566897716340	594.776784169469	1111.107672133803	719.880959675898	384.135085782919	1016.085611410294	611.553631201411	316.192800816192	1099.460727232296	520.172925995981	371.053458792857	1083.932930167445	434.184021673114	366.055978574076	1006.152528557166	383.981231847405	359.020870104420	859.501374842368	365.264368949636	313.172669705534	826.662460749159	238.912194167151	364.873038813882	1174.907786076689	405.565458581117	602.021930353013	1104.914694363395	302.954811209839	666.681331429702	1143.118601270294	207.063411644716	604.020698626124	1005.853573748722	44.450812147558	581.356115906406	1178.230959627289	98.188926046096	612.879171504841	1090.593325236065	37.934759543964	653.962853731844	1298.558098539337	43.492821261999	639.202520176933	630.155182139372	209.143076934014	403.990177380032	675.583228237505	147.545137389397	327.731421057809	779.765836404017	136.404869709669	348.101610723926	835.372635318504	28.006866745867	329.379185549651	1110.549971777824	1081.917070463136	214.889194113372	1360.581723830660	1049.987257943918	260.621018456895	917.429806734123	1097.749304636019	779.028865519637	902.904879244912	837.020698844538	786.410461512718	
91	32.848571428571	864.069921802950	991.090343164935	517.203354043411	1041.941059823403	1423.311083625218	341.662508532230	1138.983381190029	1355.661078862203	507.146329607033	1044.762050889967	1424.885432799826	677.561455318801	1014.144116285120	1481.883182781032	496.092653983467	1092.995788729668	934.626926713629	640.508102498634	1081.512534828154	946.630924031630	365.908304335249	1162.056145270559	748.938628749499	609.259623667197	1099.718619344150	629.996187550135	668.961327247007	1184.076122219621	588.220754047382	588.436772279501	1199.740503921686	495.672919681572	596.115154920073	1115.720480338810	723.363105300813	386.374564248469	1025.294590559717	612.877687389245	317.162853351833	1111.238566914624	523.491657230693	372.487026611978	1097.319634990248	436.503356485756	367.045964510441	1018.400034154108	386.300794598146	359.661022118650	871.234713830083	371.775051723998	313.390063232112	835.143207978007	245.907136640266	364.522671523643	1168.162819302851	405.023010231049	603.144999146948	1097.607185684581	302.697707257230	667.455942098193	1135.083281059639	206.782175215008	604.450302904817	996.861491690150	44.586621693214	581.467975090300	1169.405923835923	98.326291916203	613.220978788552	1081.566079876429	37.963440441629	654.049037985051	1289.576449837739	43.053429964175	639.413360650348	638.453661308644	225.178286011539	403.043719783384	680.700102072650	160.418389841002	327.077433318990	784.493688555933	143.143596337206	347.781574119547	832.787515527208	27.508070276221	329.471454666624	1103.666355664562	1080.407212882224	218.652147808737	1352.480742729904	1032.421153963257	260.938207330654	925.951026945095	1096.827628643010	783.143987349533	924.458284004701	835.448933628639	789.360789813702	
92	32.860000000000	863.377927958070	992.613748527141	520.511800545635	1040.243504479410	1424.105035959208	342.684972188821	1138.911619541217	1356.764205979086	507.384179231300	1046.526927605340	1426.396389744330	678.608937072961	1013.957657871664	1483.082797415774	497.149469101907	1092.921358873978	935.821775157607	642.073908557644	1079.898422288511	947.568101508220	367.815709234215	1159.635488609415	748.217197719606	611.424653287292	1095.443941066145	630.113486111963	670.804001731764	1179.179870832041	587.395566724662	590.189220807306	1193.466751721315	494.833888892796	597.563999270641	1119.996132608922	727.146705628004	388.594373189695	1034.263978850749	614.724534853476	317.993136198480	1122.614769026216	527.437524858448	373.907921074563	1110.541974195970	439.536447058758	368.066591524230	1030.768043870686	389.127033058893	360.362845365683	883.321217161400	377.940844828598	313.537251019276	844.558343767497	252.534223222909	364.317150642021	1161.308219077896	404.521682811973	604.314002960087	1090.168567295641	302.474020938305	668.261685287543	1126.986510581904	206.530006910214	604.914614483129	987.805573497445	44.744600211529	581.573649675638	1160.499561898809	98.411921035118	613.545485125571	1072.476242379474	37.994789187336	654.136290479429	1280.534284930223	42.612908974154	639.624279763110	647.946440816418	239.093370255754	402.199450188705	687.629650770042	171.974507028981	326.426706139110	790.922284986514	149.764950800292	347.495425311254	833.038943618329	27.687978255423	329.355631699524	1096.852015934861	1078.843730621077	222.338398353219	1343.187809681463	1013.985947042401	260.986737213797	934.784293223149	1095.874028298405	787.195744753361	947.195390233494	834.562790731915	792.088409940121	
